<?xml version="1.0" standalone="no"?>
<!DOCTYPE svg PUBLIC "-//W3C//DTD SVG 20010904//EN"
 "http://www.w3.org/TR/2001/REC-SVG-20010904/DTD/svg10.dtd">
<svg version="1.0" xmlns="http://www.w3.org/2000/svg"
 width="300.000000pt" height="300.000000pt" viewBox="0 0 300.000000 300.000000"
 preserveAspectRatio="xMidYMid meet">
<metadata>
Created by potrace 1.14, written by Peter Selinger 2001-2017
</metadata>
<g transform="translate(0.000000,300.000000) scale(0.100000,-0.100000)"
fill="#000000" stroke="none">
<path d="M0 1500 l0 -1500 1500 0 1500 0 0 1500 0 1500 -1500 0 -1500 0 0
-1500z m1654 925 c219 -38 379 -154 472 -340 25 -49 47 -106 50 -126 l6 -35
-134 -23 c-73 -12 -143 -25 -155 -28 -18 -4 -23 -1 -23 13 -1 30 -38 104 -76
151 -71 86 -235 141 -368 122 -262 -37 -347 -282 -133 -382 28 -14 157 -54
284 -91 291 -83 351 -105 435 -162 117 -79 176 -185 185 -330 22 -329 -230
-560 -632 -581 -391 -20 -690 186 -760 523 l-6 31 113 17 c62 9 130 20 150 23
31 4 39 2 44 -13 53 -154 147 -246 298 -289 83 -24 239 -17 320 15 194 75 233
293 70 382 -27 15 -177 65 -334 113 -157 48 -313 100 -346 116 -115 54 -194
144 -228 258 -20 69 -21 199 -1 276 70 271 399 424 769 360z"/>
</g>
</svg>
